<svg
  xmlns="http://www.w3.org/2000/svg"
  width="48"
  height="48"
  viewBox="0 0 48 48"
  fill="none"
>
  <defs>
    <linearGradient id="guestBg" x1="10" y1="8" x2="38" y2="40" gradientUnits="userSpaceOnUse">
      <stop stop-color="#2C3448"/>
      <stop offset="1" stop-color="#141924"/>
    </linearGradient>
    <linearGradient id="guestFace" x1="16" y1="14" x2="31" y2="34" gradientUnits="userSpaceOnUse">
      <stop stop-color="#FFE6B8"/>
      <stop offset="1" stop-color="#F3B366"/>
    </linearGradient>
  </defs>
  <circle cx="24" cy="24" r="21" fill="url(#guestBg)"/>
  <circle cx="24" cy="24" r="20" stroke="#56627E" stroke-width="2"/>

  <path
    d="M15.5 17.5L17.8 10.5L23.2 16.2C20.6 16.6 18 17.1 15.5 17.5Z"
    fill="#F5B472"
    stroke="#2A2130"
    stroke-width="1.2"
    stroke-linejoin="round"
  />
  <path
    d="M32.5 17.5L30.2 10.5L24.8 16.2C27.4 16.6 30 17.1 32.5 17.5Z"
    fill="#F5B472"
    stroke="#2A2130"
    stroke-width="1.2"
    stroke-linejoin="round"
  />

  <path
    d="M24 15C16.82 15 11 20.82 11 28C11 30.62 11.78 33.06 13.12 35.1C15.88 39.3 20.66 42 26.08 42C31.5 42 36.28 39.3 39.04 35.1C40.33 33.14 41.08 30.81 41.08 28.3C41.08 20.96 35.16 15 28 15H24Z"
    fill="url(#guestFace)"
  />
  <path
    d="M24 15C16.82 15 11 20.82 11 28C11 30.62 11.78 33.06 13.12 35.1C15.88 39.3 20.66 42 26.08 42C31.5 42 36.28 39.3 39.04 35.1C40.33 33.14 41.08 30.81 41.08 28.3C41.08 20.96 35.16 15 28 15H24Z"
    stroke="#2A2130"
    stroke-width="1.4"
    stroke-linecap="round"
    stroke-linejoin="round"
  />

  <ellipse cx="19" cy="26" rx="2.2" ry="2.8" fill="#2A2130"/>
  <ellipse cx="30" cy="26" rx="2.2" ry="2.8" fill="#2A2130"/>
  <circle cx="19.6" cy="25.2" r="0.55" fill="#FFF7E8"/>
  <circle cx="30.6" cy="25.2" r="0.55" fill="#FFF7E8"/>

  <path
    d="M22.2 31L24 29.6L25.8 31L24 32.3L22.2 31Z"
    fill="#D96C7A"
    stroke="#2A2130"
    stroke-width="1"
    stroke-linejoin="round"
  />
  <path
    d="M24 32.2V34.2"
    stroke="#2A2130"
    stroke-width="1.2"
    stroke-linecap="round"
  />
  <path
    d="M24 34.2C23.15 35.15 22.14 35.7 20.96 35.86"
    stroke="#2A2130"
    stroke-width="1.2"
    stroke-linecap="round"
  />
  <path
    d="M24 34.2C24.85 35.15 25.86 35.7 27.04 35.86"
    stroke="#2A2130"
    stroke-width="1.2"
    stroke-linecap="round"
  />

  <path
    d="M18.7 31.1L13.7 29.8"
    stroke="#F8E7CD"
    stroke-width="1.4"
    stroke-linecap="round"
  />
  <path
    d="M18.5 33L13.1 33"
    stroke="#F8E7CD"
    stroke-width="1.4"
    stroke-linecap="round"
  />
  <path
    d="M29.3 31.1L34.3 29.8"
    stroke="#F8E7CD"
    stroke-width="1.4"
    stroke-linecap="round"
  />
  <path
    d="M29.5 33L34.9 33"
    stroke="#F8E7CD"
    stroke-width="1.4"
    stroke-linecap="round"
  />

  <path
    d="M15.2 37.4C17.5 39.95 20.83 41.5 24.52 41.5C28.2 41.5 31.53 39.95 33.86 37.4"
    stroke="#FFEFD2"
    stroke-width="1"
    stroke-linecap="round"
    opacity="0.8"
  />
</svg>
